<svg width="70" height="70" viewBox="0 0 70 70" fill="none" xmlns="http://www.w3.org/2000/svg">
  <rect width="70" height="70" fill="white"/>
  <path d="M26.0681 15.1468C33.9302 14.3506 32.7191 12.76 34.9998 12.5718C37.2806 12.76 36.0694 14.3506 43.9315 15.1468C51.8009 15.9437 52.705 13.4032 54.3677 16.9309C54.643 17.5149 57.1722 27.1888 51.729 39.9907C46.3606 52.6169 35.3022 57.3002 34.9998 57.4263C34.6978 57.3003 23.6391 52.6171 18.2706 39.9907C12.8274 27.1888 15.3566 17.5149 15.6319 16.9309C17.2946 13.4032 18.1987 15.9437 26.0681 15.1468Z" fill="#2F3744"/>
  <path d="M35 29.1779C38.5537 29.1779 41.4345 28.2176 41.4345 27.033C41.4345 25.8485 38.5537 24.8882 35 24.8882C31.4463 24.8882 28.5654 25.8485 28.5654 27.033C28.5654 28.2176 31.4463 29.1779 35 29.1779Z" stroke="white" stroke-linecap="round" stroke-linejoin="round"/>
  <path d="M41.4345 32.0376C41.4345 33.2244 38.5747 34.1824 35 34.1824C31.4252 34.1824 28.5654 33.2244 28.5654 32.0376" stroke="white" stroke-linecap="round" stroke-linejoin="round"/>
  <path d="M28.5654 27.033V37.0423C28.5654 38.2291 31.4252 39.1871 35 39.1871C38.5747 39.1871 41.4345 38.2291 41.4345 37.0423V27.033" stroke="white" stroke-linecap="round" stroke-linejoin="round"/>
</svg>
