<svg id="Layer_1" data-name="Layer 1" xmlns="http://www.w3.org/2000/svg" viewBox="0 0 471.03 100.52"><defs><style>.cls-1{fill:#464647;}.cls-2{fill:#4ac7eb;}.cls-3{fill:#485daa;}.cls-4{fill:#0c3b5d;}</style></defs><path class="cls-1" d="M337.61,324.58s-6.26,6.51-20.08,6.51c-17.86,0-28.68-12.12-28.68-28.81s10.56-28.81,26.6-28.81,24.9,11.34,24.9,27.25c0,1.17-.13,3.39-.13,3.39H301.37c.78,11.08,7.3,16.55,16.95,16.55a23.57,23.57,0,0,0,14.73-4.82Zm-35.72-28.95h25.68c-.91-7.95-5.21-12.25-12.38-12.25S303.32,287.42,301.89,295.63Z" transform="translate(-168.28 -249.35)"/><path class="cls-1" d="M350.37,274.77h8.35l1.56,7.82h.78c4.05-6,9.13-9.12,18.13-9.12s15.64,3.65,19.42,9.91h.66c3.65-6,9-9.91,18.77-9.91,14.21,0,22.43,9.91,22.43,24.64v31.42H427.69V299.28c0-8.34-4.3-14.86-12.78-14.86s-12.65,6.39-13,12.38v32.73H389.1V298c0-7.69-4.57-13.56-12.91-13.56-8.74,0-12.65,6.65-13,12.38v32.73H350.37Z" transform="translate(-168.28 -249.35)"/><path class="cls-1" d="M466.31,323.14v26.73H453.54v-75.1H462l1.83,7.82h.78s4.95-9.12,19.16-9.12,25.43,11.21,25.43,28.68c0,17.08-10.95,28.68-25,28.68-13.56,0-17.34-7.69-17.34-7.69Zm14.74-2.87c8.86,0,15.25-7.43,15.25-18.12S489.91,284,481.05,284c-8.61,0-15.39,6.91-15.39,18.12S472.44,320.27,481.05,320.27Z" transform="translate(-168.28 -249.35)"/><path class="cls-1" d="M519.73,250.65H532.5v78.88H519.73Z" transform="translate(-168.28 -249.35)"/><path class="cls-1" d="M544.51,257a7.89,7.89,0,1,1,7.82,7.69A7.65,7.65,0,0,1,544.51,257Zm1.43,17.73h12.78v54.76H545.94Z" transform="translate(-168.28 -249.35)"/><path class="cls-1" d="M571.43,274.77v-4.69c0-12.65,7.17-20.34,19.81-20.34a27.41,27.41,0,0,1,12.39,2.61l-4,9.64a17.18,17.18,0,0,0-7-1.43c-5.09,0-8.35,3.39-8.35,8.87v5.34h15.26v10H584.2v44.72H571.43V274.77Z" transform="translate(-168.28 -249.35)"/><path class="cls-1" d="M607.94,257a7.89,7.89,0,1,1,7.82,7.69A7.65,7.65,0,0,1,607.94,257Zm1.44,17.73h12.77v54.76H609.38Z" transform="translate(-168.28 -249.35)"/><path class="cls-2" d="M189.71,279.64a21.49,21.49,0,0,0-21.43,21.43h0a21.5,21.5,0,0,0,21.43,21.43h4.42V279.64Z" transform="translate(-168.28 -249.35)"/><path class="cls-3" d="M241.41,279.64H237V322.5h4.42a21.49,21.49,0,0,0,21.43-21.43h0A21.49,21.49,0,0,0,241.41,279.64Z" transform="translate(-168.28 -249.35)"/><path class="cls-2" d="M237,275.22a21.49,21.49,0,0,0-21.43-21.43h0a21.49,21.49,0,0,0-21.43,21.43v4.42H237Z" transform="translate(-168.28 -249.35)"/><path class="cls-3" d="M194.79,332.07a21.5,21.5,0,0,0,20.77,16.28h0A21.49,21.49,0,0,0,237,326.92V322.5H204.36Z" transform="translate(-168.28 -249.35)"/><path class="cls-4" d="M194.13,279.64v47.28a21.31,21.31,0,0,0,.66,5.15l9.57-9.57H237V279.64Z" transform="translate(-168.28 -249.35)"/><path class="cls-1" d="M633.83,250.59h-1.38v3.89h-1v-3.89h-1.38v-.85h3.72Zm.82,3.89v-4.74h.68l1.64,2.14,1.69-2.14h.66v4.74h-1v-2.91l-1.19,1.54h-.36l-1.19-1.54v2.91Z" transform="translate(-168.28 -249.35)"/></svg>